<?xml version="1.0" encoding="utf-8"?>
<!-- Generator: Adobe Illustrator 16.0.3, SVG Export Plug-In . SVG Version: 6.00 Build 0)  -->
<!DOCTYPE svg PUBLIC "-//W3C//DTD SVG 1.1//EN" "http://www.w3.org/Graphics/SVG/1.1/DTD/svg11.dtd">
<svg version="1.1" id="Capa_1" xmlns="http://www.w3.org/2000/svg" xmlns:xlink="http://www.w3.org/1999/xlink" x="0px" y="0px"
	 width="234.833px" height="80px" viewBox="0 0 234.833 80" style="enable-background:new 0 0 234.833 80;" xml:space="preserve">
<g>
	<g>
		<path style="fill-rule:evenodd;clip-rule:evenodd;fill:#FF3E02;" d="M22.962,19.851c0-0.374,0-0.641,0-0.92
			c0-1.986-0.003-3.976,0.006-5.965c0.005-2.562,1.571-4.108,4.123-4.108c6.659,0,13.322,0,19.986,0c2.402,0,3.982,1.56,3.998,3.908
			c0.002,2.099,0.012,4.192-0.02,6.286c-0.011,0.625,0.182,0.804,0.808,0.8c4.123-0.015,8.228-0.001,12.334,0
			c4.851,0,8.77,3.646,8.79,8.423c0.066,10.353,0.066,20.707-0.007,31.084c-0.015,4.681-3.959,8.399-8.732,8.399
			c-18.154,0.018-36.306,0.018-54.449,0c-4.815,0-8.749-3.819-8.769-8.584c-0.038-10.246-0.039-20.506,0-30.765
			c0.022-4.793,3.946-8.557,8.772-8.557c4.055-0.001,8.109,0,12.176,0C22.276,19.851,22.569,19.851,22.962,19.851z M26.246,19.851
			c0.722,0,1.326,0,1.938,0c6.255,0,12.507-0.014,18.761,0.003c0.743,0.005,0.944-0.204,0.924-0.923
			c-0.052-1.893-0.014-3.786-0.019-5.67c-0.002-1.057-0.123-1.176-1.176-1.176c-5.528,0-11.056,0-16.607,0
			c-1.022,0-2.037,0.015-3.057,0c-0.467-0.014-0.759,0.175-0.76,0.641C26.241,15.047,26.246,17.395,26.246,19.851z"/>
	</g>
	<path style="fill:#FFFFFF;" d="M35.982,26.03c-7.855,0.014-14.221,6.543-14.233,14.599c0,3.982,2.231,8.547,6.622,13.556
		c1.95,2.232,4.077,4.3,6.355,6.163c0.736,0.59,1.759,0.59,2.495,0c2.282-1.863,4.406-3.931,6.347-6.163
		c4.4-5.009,6.617-9.573,6.617-13.556C50.182,32.573,43.814,26.044,35.982,26.03z"/>
	<path style="fill:#035373;" d="M36.169,34.475c3.748,0.101,6.688,3.291,6.572,7.13c-0.116,3.842-3.229,6.875-6.958,6.77
		c-3.754-0.114-6.688-3.288-6.58-7.136C29.315,37.397,32.435,34.373,36.169,34.475z"/>
	<g>
	</g>
</g>
<g>
	<path style="fill:#FF3E02;" d="M104.428,28.42l-8.506,10.433c-0.519,0.644-1.013,1.088-1.482,1.331s-1.063,0.365-1.779,0.365
		c-0.593,0-1.124-0.079-1.593-0.236c-0.358-0.12-0.64-0.26-0.844-0.421c-0.203-0.161-0.46-0.451-0.769-0.871l-7.579-10.119
		c-0.42-0.569-0.8-0.957-1.14-1.162c-0.34-0.206-0.824-0.343-1.454-0.41c-0.742-0.083-1.112-0.359-1.112-0.831
		c0-0.577,0.648-1.02,1.945-1.331c1.298-0.311,3.156-0.466,5.578-0.466c2.52,0,4.373,0.116,5.559,0.348
		c1.187,0.232,1.779,0.591,1.779,1.078c0,0.314-0.321,0.606-0.964,0.876c-0.494,0.202-0.741,0.393-0.741,0.573
		c0,0.165,0.111,0.4,0.334,0.708l2.316,3.167c0.333,0.464,0.71,0.696,1.13,0.696c0.408,0,0.772-0.124,1.094-0.371
		c0.32-0.247,0.753-0.734,1.297-1.46c0.976-1.303,1.544-2.072,1.705-2.308c0.16-0.236,0.24-0.417,0.24-0.545
		c0-0.254-0.29-0.472-0.871-0.651c-0.642-0.202-0.963-0.46-0.963-0.775c0-0.891,1.97-1.336,5.911-1.336
		c1.964,0,3.351,0.096,4.16,0.286c0.809,0.191,1.214,0.519,1.214,0.983c0,0.554-0.531,0.872-1.594,0.955
		c-0.754,0.052-1.242,0.127-1.464,0.225C105.441,27.323,104.971,27.746,104.428,28.42z"/>
	<path style="fill:#FF3E02;" d="M121.784,24.703c1.408,0,2.736,0.075,3.984,0.225c1.68,0.202,2.521,0.633,2.521,1.292
		c0,0.217-0.084,0.38-0.251,0.489c-0.166,0.108-0.59,0.268-1.269,0.477c-0.568,0.172-0.942,0.55-1.121,1.134
		c-0.18,0.584-0.27,1.722-0.27,3.414c0,2.86,0.118,4.631,0.353,5.312c0.086,0.217,0.219,0.384,0.398,0.5
		c0.179,0.116,0.491,0.242,0.936,0.376c0.815,0.225,1.224,0.55,1.224,0.977c0,0.599-0.754,1.011-2.261,1.235
		c-1.631,0.239-3.626,0.359-5.985,0.359c-4.027,0-6.041-0.464-6.041-1.393c0-0.337,0.396-0.651,1.186-0.943
		c0.605-0.225,0.964-0.532,1.075-0.921c0.234-0.854,0.352-2.666,0.352-5.436c0-1.917-0.16-3.145-0.481-3.684
		c-0.173-0.307-0.587-0.584-1.241-0.831c-0.507-0.202-0.847-0.371-1.02-0.505s-0.26-0.307-0.26-0.517
		c0-0.322,0.257-0.579,0.77-0.769c0.513-0.191,1.417-0.361,2.715-0.511C118.64,24.796,120.203,24.703,121.784,24.703z"/>
	<path style="fill:#FF3E02;" d="M157.968,32.508l3.502,4.548c0.334,0.419,0.611,0.694,0.834,0.825
		c0.223,0.131,0.562,0.219,1.019,0.264c0.89,0.083,1.335,0.355,1.335,0.82c0,0.546-0.544,0.939-1.631,1.18
		c-1.087,0.239-2.866,0.359-5.337,0.359c-2.792,0-4.861-0.071-6.208-0.214c-0.617-0.067-1.108-0.204-1.473-0.41
		c-0.364-0.206-0.547-0.455-0.547-0.747c0-0.225,0.096-0.399,0.287-0.522c0.191-0.124,0.547-0.238,1.065-0.343
		c0.581-0.12,0.871-0.322,0.871-0.606c0-0.501-0.5-0.797-1.501-0.887c-1.074-0.09-2.588-0.135-4.54-0.135
		c-1.643,0-2.625,0.06-2.946,0.18c-0.197,0.075-0.37,0.209-0.519,0.404s-0.223,0.382-0.223,0.562c0,0.165,0.053,0.271,0.158,0.32
		c0.104,0.049,0.447,0.129,1.028,0.242c0.753,0.135,1.13,0.404,1.13,0.809c0,0.891-1.76,1.336-5.281,1.336
		c-2.001,0-3.472-0.082-4.41-0.247c-0.864-0.157-1.297-0.502-1.297-1.033c0-0.232,0.096-0.412,0.287-0.539s0.534-0.243,1.028-0.348
		c0.803-0.172,1.411-0.414,1.825-0.724c0.414-0.311,1.004-0.976,1.77-1.994l2.613-3.47c0.964-1.273,1.608-2.226,1.937-2.858
		c0.327-0.632,0.497-1.252,0.51-1.858c0.012-0.644,0.076-1.091,0.194-1.342c0.117-0.251,0.38-0.496,0.787-0.736
		c0.853-0.524,1.939-0.786,3.262-0.786c1.247,0,2.439,0.296,3.576,0.887C152.656,26.252,154.954,28.607,157.968,32.508z
		 M145.071,33.923h3.632c0.667,0,1.001-0.09,1.001-0.27c0-0.247-0.464-0.854-1.39-1.819c-0.42-0.442-0.741-0.737-0.964-0.887
		s-0.457-0.225-0.704-0.225c-0.444,0-0.815,0.251-1.112,0.752c-0.049,0.067-0.229,0.333-0.537,0.797
		c-0.519,0.764-0.778,1.22-0.778,1.37C144.218,33.829,144.502,33.923,145.071,33.923z"/>
	<path style="fill:#FF3E02;" d="M185.164,24.703c1.384,0,2.792,0.075,4.226,0.225c1.173,0.12,2.013,0.285,2.52,0.494
		s0.76,0.498,0.76,0.865c0,0.232-0.093,0.414-0.277,0.544c-0.186,0.131-0.587,0.291-1.205,0.478
		c-0.717,0.225-1.127,0.488-1.232,0.792c-0.104,0.303-0.2,1.48-0.287,3.532c-0.037,1.984-0.071,3.174-0.102,3.571
		c-0.031,0.397-0.108,0.782-0.231,1.157c-0.358,1.093-1.081,1.95-2.168,2.572c-0.89,0.509-2.032,0.91-3.429,1.202
		c-1.396,0.292-2.866,0.438-4.41,0.438c-1.371,0-2.745-0.108-4.123-0.325c-1.377-0.217-2.572-0.517-3.585-0.898
		c-0.841-0.314-1.508-0.739-2.002-1.274c-0.493-0.536-0.741-1.106-0.741-1.713c0-0.749,0.39-1.368,1.168-1.858
		c0.778-0.491,1.754-0.736,2.928-0.736c1.148,0,2.124,0.206,2.928,0.618c0.803,0.419,1.204,0.936,1.204,1.55
		c0,0.157-0.074,0.419-0.222,0.786c-0.025,0.075-0.037,0.157-0.037,0.247c0,0.24,0.142,0.434,0.426,0.584s0.661,0.225,1.13,0.225
		c0.828,0,1.495-0.225,2.002-0.674c0.506-0.449,0.76-1.041,0.76-1.774l-0.019-1.022l-0.037-2.751
		c-0.111-1.669-0.194-2.652-0.25-2.948c-0.056-0.295-0.195-0.537-0.417-0.724c-0.186-0.15-0.35-0.247-0.491-0.292
		c-0.143-0.045-0.528-0.116-1.158-0.213c-0.297-0.038-0.55-0.142-0.76-0.314s-0.315-0.355-0.315-0.55
		c0-0.404,0.263-0.728,0.788-0.971c0.524-0.244,1.38-0.44,2.566-0.59C182.39,24.785,183.755,24.703,185.164,24.703z"/>
	<path style="fill:#FF3E02;" d="M220.421,32.508l3.502,4.548c0.334,0.419,0.611,0.694,0.834,0.825
		c0.223,0.131,0.562,0.219,1.019,0.264c0.89,0.083,1.335,0.355,1.335,0.82c0,0.546-0.544,0.939-1.631,1.18
		c-1.087,0.239-2.866,0.359-5.337,0.359c-2.792,0-4.861-0.071-6.208-0.214c-0.617-0.067-1.108-0.204-1.473-0.41
		c-0.364-0.206-0.547-0.455-0.547-0.747c0-0.225,0.096-0.399,0.287-0.522c0.191-0.124,0.547-0.238,1.065-0.343
		c0.581-0.12,0.871-0.322,0.871-0.606c0-0.501-0.5-0.797-1.501-0.887c-1.074-0.09-2.588-0.135-4.54-0.135
		c-1.643,0-2.625,0.06-2.946,0.18c-0.197,0.075-0.37,0.209-0.519,0.404s-0.223,0.382-0.223,0.562c0,0.165,0.053,0.271,0.158,0.32
		c0.104,0.049,0.447,0.129,1.028,0.242c0.753,0.135,1.13,0.404,1.13,0.809c0,0.891-1.76,1.336-5.281,1.336
		c-2.001,0-3.472-0.082-4.41-0.247c-0.864-0.157-1.297-0.502-1.297-1.033c0-0.232,0.096-0.412,0.287-0.539s0.534-0.243,1.028-0.348
		c0.803-0.172,1.411-0.414,1.825-0.724c0.414-0.311,1.004-0.976,1.77-1.994l2.613-3.47c0.964-1.273,1.608-2.226,1.937-2.858
		c0.327-0.632,0.497-1.252,0.51-1.858c0.012-0.644,0.076-1.091,0.194-1.342c0.117-0.251,0.38-0.496,0.787-0.736
		c0.853-0.524,1.939-0.786,3.262-0.786c1.247,0,2.439,0.296,3.576,0.887C215.109,26.252,217.407,28.607,220.421,32.508z
		 M207.524,33.923h3.632c0.667,0,1.001-0.09,1.001-0.27c0-0.247-0.464-0.854-1.39-1.819c-0.42-0.442-0.741-0.737-0.964-0.887
		s-0.457-0.225-0.704-0.225c-0.444,0-0.815,0.251-1.112,0.752c-0.049,0.067-0.229,0.333-0.537,0.797
		c-0.519,0.764-0.778,1.22-0.778,1.37C206.671,33.829,206.956,33.923,207.524,33.923z"/>
	<path style="fill:#035373;" d="M93.274,53.627c0.129,0,0.224,0.057,0.282,0.17c0.059,0.115,0.088,0.236,0.088,0.369
		c0,0.156-0.026,0.318-0.079,0.486s-0.108,0.324-0.168,0.467c-0.07,0.17-0.152,0.338-0.246,0.506
		c-0.235,0.455-0.521,0.965-0.856,1.529c-0.335,0.564-0.693,1.096-1.075,1.592c-0.383,0.5-0.776,0.916-1.183,1.252
		c-0.405,0.336-0.797,0.504-1.173,0.504c-0.588,0-1.082-0.387-1.481-1.16c-0.4-0.775-0.6-1.947-0.6-3.52
		c-0.177,0.492-0.371,0.941-0.582,1.35c-0.212,0.408-0.43,0.762-0.653,1.063c-0.224,0.299-0.447,0.533-0.67,0.701
		c-0.224,0.168-0.43,0.252-0.617,0.252c-0.142,0-0.285-0.012-0.433-0.035s-0.285-0.105-0.414-0.244
		c-0.13-0.137-0.235-0.354-0.318-0.646c-0.082-0.295-0.123-0.717-0.123-1.27c0-1.045,0.164-1.924,0.494-2.637
		c0.329-0.715,0.72-1.291,1.173-1.729c0.452-0.438,0.914-0.752,1.385-0.945c0.47-0.191,0.847-0.287,1.129-0.287
		c0.177,0,0.3,0.035,0.37,0.107c0.023,0,0.05-0.002,0.08-0.01c0.029-0.006,0.056-0.008,0.079-0.008c0.094,0,0.232,0.039,0.414,0.117
		c0.183,0.078,0.362,0.219,0.538,0.422c0.177,0.205,0.332,0.48,0.468,0.828c0.135,0.35,0.203,0.787,0.203,1.314
		c0,0.816,0.003,1.494,0.009,2.033c0.006,0.541,0.012,0.973,0.018,1.297s0.021,0.553,0.044,0.684
		c0.023,0.133,0.053,0.199,0.088,0.199c0.153,0,0.341-0.109,0.564-0.324c0.224-0.217,0.456-0.486,0.697-0.811
		s0.485-0.678,0.731-1.063c0.247-0.383,0.471-0.744,0.671-1.08l0.6-1.025c0-0.012,0.018-0.043,0.053-0.09
		c0.035-0.049,0.076-0.1,0.124-0.152c0.047-0.055,0.103-0.104,0.167-0.145C93.135,53.646,93.204,53.627,93.274,53.627z
		 M84.436,56.703c0,0.422,0.064,0.631,0.194,0.631c0.094,0,0.209-0.092,0.344-0.279c0.135-0.186,0.279-0.42,0.433-0.701
		c0.152-0.283,0.312-0.6,0.476-0.955c0.165-0.354,0.314-0.701,0.45-1.043c0.135-0.342,0.25-0.654,0.344-0.936
		c0.095-0.283,0.159-0.502,0.194-0.658c0-0.072,0.006-0.125,0.018-0.162c-0.459,0.313-0.87,0.672-1.234,1.08
		c-0.307,0.348-0.586,0.777-0.838,1.287C84.563,55.477,84.436,56.057,84.436,56.703z"/>
	<path style="fill:#035373;" d="M104.881,48.424c0.129,0,0.247,0.027,0.353,0.082c0.105,0.053,0.164,0.176,0.177,0.369
		c0,0.119-0.027,0.232-0.08,0.342c-0.053,0.107-0.108,0.162-0.167,0.162c-0.412,0.119-0.903,0.213-1.474,0.277
		c-0.57,0.066-1.173,0.111-1.808,0.137c-0.083,1.02-0.142,2.1-0.177,3.238c-0.035,1.141-0.064,2.266-0.088,3.375
		c-0.023,1.111-0.044,2.174-0.062,3.188s-0.044,1.898-0.08,2.654c-0.023,0.287-0.079,0.553-0.167,0.793
		c-0.089,0.238-0.203,0.445-0.344,0.619c-0.142,0.174-0.304,0.311-0.485,0.406c-0.183,0.096-0.368,0.145-0.556,0.145
		c-0.153,0-0.303-0.031-0.45-0.092c-0.147-0.059-0.291-0.16-0.432-0.305c-0.095-0.096-0.162-0.463-0.203-1.098
		c-0.041-0.637-0.062-1.447-0.062-2.432c0-0.73,0.012-1.529,0.035-2.393c0.023-0.865,0.053-1.756,0.088-2.674
		s0.079-1.842,0.133-2.771c0.053-0.93,0.108-1.82,0.167-2.674c-0.576-0.035-1.094-0.098-1.552-0.188
		c-0.459-0.092-0.817-0.207-1.076-0.352c-0.047-0.023-0.1-0.072-0.159-0.145c-0.059-0.072-0.1-0.137-0.123-0.197
		c-0.023-0.049-0.035-0.102-0.035-0.162c0-0.037,0.012-0.096,0.035-0.18s0.053-0.168,0.088-0.252s0.07-0.16,0.105-0.227
		c0.036-0.064,0.065-0.098,0.089-0.098c0.023-0.012,0.064-0.018,0.123-0.018c0.047,0,0.101,0.002,0.159,0.008
		s0.123,0.016,0.194,0.027c0.388,0.096,0.767,0.178,1.138,0.242c0.37,0.066,0.743,0.129,1.12,0.189
		c0.047-0.648,0.103-1.248,0.167-1.799c0.064-0.553,0.13-1.029,0.194-1.432s0.129-0.715,0.194-0.936
		c0.064-0.223,0.132-0.334,0.202-0.334c0.095-0.035,0.194-0.072,0.3-0.107c0.095-0.023,0.197-0.049,0.31-0.072
		c0.111-0.023,0.231-0.035,0.361-0.035c0.152,0,0.309,0.025,0.468,0.08c0.158,0.055,0.302,0.15,0.432,0.287
		c0.129,0.139,0.235,0.328,0.317,0.568s0.124,0.551,0.124,0.936c0,0.191-0.012,0.396-0.035,0.611
		c-0.024,0.217-0.06,0.457-0.106,0.721c-0.059,0.264-0.105,0.537-0.141,0.818c-0.036,0.283-0.071,0.58-0.106,0.891h0.089
		c0.517,0,1.022-0.018,1.517-0.053c0.271-0.023,0.532-0.055,0.785-0.09C104.631,48.441,104.798,48.424,104.881,48.424z"/>
	<path style="fill:#035373;" d="M107.65,53.787c0,0.324-0.023,0.697-0.07,1.117s-0.104,0.834-0.168,1.242s-0.12,0.789-0.167,1.143
		s-0.07,0.639-0.07,0.855c0,0.24,0.041,0.359,0.123,0.359c0.023,0,0.041-0.006,0.053-0.018c0.282-0.145,0.559-0.393,0.829-0.748
		c0.271-0.354,0.529-0.75,0.776-1.188s0.482-0.896,0.706-1.377c0.223-0.48,0.426-0.924,0.608-1.332
		c0.182-0.408,0.341-0.752,0.476-1.035c0.136-0.281,0.244-0.447,0.327-0.494c0.047-0.023,0.155-0.07,0.326-0.135
		c0.17-0.066,0.361-0.1,0.573-0.1c0.129,0,0.259,0.021,0.388,0.063c0.13,0.043,0.244,0.115,0.344,0.217
		c0.101,0.102,0.183,0.242,0.247,0.422c0.064,0.182,0.098,0.414,0.098,0.703c0,0.299-0.009,0.621-0.026,0.963
		s-0.036,0.684-0.054,1.025s-0.032,0.676-0.044,1s-0.018,0.623-0.018,0.898c0,0.385,0.021,0.691,0.062,0.918
		c0.041,0.229,0.121,0.344,0.238,0.344c0.165,0,0.355-0.117,0.573-0.352s0.441-0.531,0.671-0.891
		c0.229-0.361,0.455-0.756,0.679-1.189c0.224-0.432,0.43-0.846,0.617-1.24c0.059-0.133,0.13-0.277,0.212-0.434
		c0.082-0.154,0.168-0.303,0.256-0.439c0.088-0.139,0.177-0.252,0.265-0.344c0.088-0.09,0.174-0.135,0.256-0.135
		c0.117,0,0.188,0.053,0.212,0.154c0.023,0.102,0.035,0.195,0.035,0.279c0,0.252-0.044,0.561-0.133,0.926
		c-0.088,0.367-0.185,0.688-0.291,0.963c-0.176,0.469-0.417,1-0.723,1.594c-0.307,0.594-0.647,1.152-1.023,1.674
		c-0.377,0.521-0.768,0.961-1.173,1.314c-0.406,0.354-0.785,0.531-1.138,0.531c-0.317,0-0.576-0.078-0.776-0.234
		s-0.355-0.361-0.468-0.613c-0.111-0.252-0.191-0.539-0.238-0.863s-0.07-0.654-0.07-0.99c0-0.313,0.012-0.615,0.035-0.908
		c0.023-0.295,0.053-0.555,0.089-0.783c0.047-0.264,0.094-0.516,0.141-0.756c-0.294,0.924-0.67,1.752-1.129,2.484
		c-0.2,0.311-0.423,0.613-0.67,0.908s-0.526,0.559-0.838,0.791c-0.313,0.234-0.656,0.42-1.032,0.559
		c-0.377,0.139-0.782,0.207-1.217,0.207c-0.354,0-0.645-0.1-0.874-0.297c-0.229-0.197-0.411-0.465-0.547-0.801
		c-0.135-0.336-0.231-0.721-0.291-1.152c-0.059-0.432-0.088-0.881-0.088-1.35c0-0.516,0.026-1.037,0.079-1.566
		c0.054-0.527,0.115-1.008,0.186-1.439s0.144-0.799,0.221-1.098c0.076-0.301,0.138-0.486,0.185-0.559
		c0.06-0.107,0.159-0.189,0.301-0.242c0.141-0.055,0.293-0.082,0.458-0.082c0.188,0,0.382,0.033,0.582,0.1s0.382,0.162,0.547,0.287
		c0.165,0.127,0.3,0.285,0.406,0.477C107.597,53.314,107.65,53.535,107.65,53.787z"/>
	<path style="fill:#035373;" d="M136.896,43.816v13.82c0,0.787,0.03,1.293,0.093,1.514c0.062,0.223,0.234,0.439,0.519,0.65
		c0.342,0.254,0.572,0.475,0.69,0.666c0.118,0.193,0.178,0.424,0.178,0.697c0,0.807-0.764,1.422-2.29,1.846
		c-1.376,0.375-2.752,0.561-4.127,0.561c-0.304,0-0.5-0.047-0.59-0.143c-0.091-0.098-0.149-0.326-0.179-0.689
		c-0.047-0.516-0.218-0.771-0.512-0.771c-0.161,0-0.413,0.15-0.754,0.453c-0.968,0.838-2.045,1.256-3.23,1.256
		c-1.47,0-2.793-0.58-3.97-1.74c-0.692-0.695-1.252-1.498-1.679-2.406c-0.569-1.182-0.854-2.377-0.854-3.588
		c0-1.422,0.37-2.795,1.109-4.117c0.684-1.221,1.612-2.158,2.789-2.814c0.986-0.545,1.959-0.818,2.917-0.818
		c1.101,0,2.087,0.264,2.959,0.787c0.143,0.082,0.257,0.121,0.342,0.121c0.304,0,0.455-0.434,0.455-1.301
		c0-0.373-0.083-0.658-0.249-0.855s-0.462-0.365-0.889-0.508c-0.598-0.201-0.896-0.555-0.896-1.059c0-0.736,0.688-1.313,2.063-1.727
		c2.429-0.717,4.056-1.074,4.881-1.074C136.488,42.576,136.896,42.99,136.896,43.816z M129.169,51.432
		c-0.616,0-1.104,0.348-1.465,1.043c-0.484,0.93-0.726,2.15-0.726,3.664c0,1.373,0.232,2.406,0.697,3.104
		c0.332,0.504,0.782,0.756,1.352,0.756c0.616,0,1.064-0.381,1.345-1.143c0.279-0.762,0.419-1.99,0.419-3.686
		c0-1.555-0.166-2.588-0.497-3.104C130.038,51.664,129.663,51.451,129.169,51.432z"/>
	<path style="fill:#035373;" d="M152.362,56.486h-6.688c-0.294,0-0.44,0.137-0.44,0.408c0,0.656,0.334,1.275,1.003,1.855
		s1.388,0.869,2.155,0.869c0.456,0,0.961-0.092,1.516-0.279c0.555-0.186,1.013-0.416,1.373-0.689
		c0.322-0.242,0.578-0.363,0.769-0.363c0.246,0,0.488,0.162,0.726,0.484c0.237,0.324,0.355,0.656,0.355,1
		c0,0.727-0.427,1.428-1.28,2.104c-1.509,1.201-3.249,1.801-5.222,1.801c-1.992,0-3.662-0.615-5.009-1.846
		c-0.654-0.605-1.195-1.338-1.622-2.195c-0.56-1.141-0.84-2.34-0.84-3.602c0-1.695,0.484-3.219,1.452-4.572
		c0.834-1.17,1.896-2.043,3.187-2.619c0.968-0.434,2.016-0.65,3.145-0.65c1.803,0,3.334,0.545,4.596,1.635
		c0.636,0.545,1.147,1.191,1.537,1.938c0.445,0.848,0.669,1.676,0.669,2.482c0,0.656-0.128,1.193-0.385,1.613
		C153.102,56.277,152.77,56.486,152.362,56.486z M146.044,53.656h1.438c0.606,0,0.91-0.297,0.91-0.893
		c0-0.545-0.146-0.99-0.44-1.332c-0.295-0.344-0.679-0.516-1.153-0.516c-0.531,0-0.948,0.223-1.252,0.666
		c-0.284,0.414-0.427,0.832-0.427,1.256c0,0.303,0.069,0.516,0.206,0.637C145.463,53.596,145.704,53.656,146.044,53.656z"/>
	<path style="fill:#035373;" d="M160.359,48.191c0.474,0,1.247,0.111,2.319,0.334c0.218,0.039,0.398,0.061,0.54,0.061
		c0.161,0,0.475-0.092,0.939-0.273c0.218-0.09,0.403-0.137,0.555-0.137c0.437,0,0.877,0.299,1.323,0.895
		c0.36,0.475,0.654,0.994,0.882,1.559c0.229,0.564,0.342,1.055,0.342,1.469c0,0.402-0.133,0.738-0.398,1.006s-0.598,0.4-0.996,0.4
		c-0.332,0-0.628-0.084-0.889-0.256c-0.262-0.172-0.681-0.551-1.26-1.137c-0.607-0.625-1.109-0.938-1.508-0.938
		c-0.266,0-0.496,0.104-0.69,0.311s-0.292,0.451-0.292,0.734c0,0.494,0.446,0.959,1.338,1.393c1.603,0.766,2.831,1.604,3.686,2.512
		c0.721,0.768,1.081,1.705,1.081,2.816c0,1.402-0.579,2.572-1.736,3.512c-0.995,0.816-2.215,1.225-3.656,1.225
		c-0.37,0-1.044-0.064-2.021-0.195c-0.92-0.111-1.438-0.168-1.551-0.168c-0.123,0-0.266,0.016-0.427,0.047
		c-0.275,0.039-0.475,0.061-0.598,0.061c-0.446,0-0.797-0.121-1.053-0.363c-0.39-0.373-0.75-0.961-1.082-1.764
		s-0.498-1.492-0.498-2.066c0-0.928,0.342-1.393,1.024-1.393c0.266,0,0.51,0.094,0.733,0.279c0.223,0.188,0.689,0.684,1.401,1.492
		c0.389,0.443,0.711,0.748,0.968,0.916c0.256,0.166,0.531,0.248,0.825,0.248c0.313,0,0.564-0.088,0.754-0.264
		s0.284-0.412,0.284-0.705c0-0.453-0.365-0.867-1.096-1.24c-1.527-0.797-2.63-1.619-3.308-2.467
		c-0.679-0.848-1.018-1.826-1.018-2.938c0-1.201,0.347-2.234,1.039-3.104C157.304,48.813,158.651,48.191,160.359,48.191z"/>
	<path style="fill:#035373;" d="M177.09,52.158v5.115c0,0.605,0.14,1.1,0.42,1.484c0.279,0.383,0.638,0.574,1.074,0.574
		c0.37,0,0.858-0.182,1.466-0.545c0.143-0.09,0.284-0.137,0.427-0.137c0.228,0,0.437,0.146,0.626,0.439s0.284,0.611,0.284,0.953
		c0,0.627-0.322,1.227-0.967,1.803c-1.348,1.221-2.979,1.83-4.895,1.83c-1.519,0-2.737-0.455-3.657-1.369
		c-0.92-0.912-1.38-2.117-1.38-3.609v-6.994c0-0.232-0.026-0.375-0.078-0.432c-0.053-0.055-0.188-0.082-0.406-0.082h-1.465
		c-0.275,0-0.451-0.049-0.526-0.145c-0.076-0.096-0.114-0.32-0.114-0.674v-0.666c0.01-0.303,0.119-0.523,0.327-0.666l6.517-4.359
		c0.161-0.09,0.36-0.137,0.598-0.137h1.152c0.237,0,0.396,0.059,0.477,0.176c0.081,0.115,0.121,0.346,0.121,0.688v2.043
		c0,0.303,0.045,0.5,0.136,0.592c0.09,0.09,0.282,0.135,0.576,0.135h2.632c0.351,0,0.579,0.068,0.684,0.205
		c0.104,0.137,0.156,0.426,0.156,0.871v0.893c0,0.484-0.066,0.82-0.199,1.006c-0.133,0.188-0.375,0.281-0.726,0.281h-2.575
		c-0.266,0-0.446,0.051-0.541,0.15C177.138,51.684,177.09,51.875,177.09,52.158z"/>
	<path style="fill:#035373;" d="M190.04,49.236v8.795c0,0.695,0.059,1.205,0.178,1.527c0.118,0.324,0.357,0.621,0.718,0.895
		c0.294,0.221,0.491,0.41,0.591,0.566c0.1,0.158,0.149,0.355,0.149,0.598c0,1.303-1.551,1.953-4.652,1.953
		c-1.67,0-2.993-0.141-3.97-0.424c-0.332-0.1-0.601-0.277-0.804-0.529c-0.204-0.252-0.307-0.539-0.307-0.863
		c0-0.271,0.053-0.484,0.157-0.635c0.104-0.152,0.369-0.395,0.796-0.727c0.294-0.232,0.503-0.611,0.627-1.137
		c0.123-0.523,0.185-1.307,0.185-2.346c0-0.332-0.021-0.955-0.064-1.869c-0.042-0.912-0.073-1.445-0.092-1.598
		c-0.058-0.412-0.323-0.73-0.797-0.953c-0.589-0.271-0.883-0.676-0.883-1.211c0-0.635,0.385-1.109,1.153-1.422
		c1.062-0.434,2.2-0.803,3.414-1.105c1.215-0.303,2.153-0.455,2.817-0.455C189.778,48.297,190.04,48.611,190.04,49.236z
		 M187.222,42.605c0.825,0,1.479,0.166,1.963,0.492c0.484,0.328,0.726,0.77,0.726,1.324c0,0.777-0.365,1.393-1.095,1.848
		c-1.158,0.717-2.557,1.074-4.198,1.074c-0.692,0-1.242-0.141-1.65-0.424c-0.55-0.363-0.825-0.867-0.825-1.514
		c0-0.867,0.584-1.549,1.75-2.043C185.078,42.859,186.188,42.605,187.222,42.605z"/>
	<path style="fill:#035373;" d="M209.774,53.777l0.199,5.328c0.019,0.404,0.078,0.701,0.178,0.893s0.392,0.561,0.875,1.105
		c0.143,0.162,0.214,0.389,0.214,0.682c0,0.666-0.375,1.129-1.124,1.393c-0.75,0.262-2.087,0.393-4.013,0.393
		c-1.309,0-2.233-0.121-2.774-0.363c-0.56-0.252-0.84-0.66-0.84-1.227c0-0.201,0.028-0.35,0.086-0.445
		c0.057-0.096,0.246-0.33,0.568-0.705c0.38-0.424,0.569-1.836,0.569-4.238c0-1.393-0.151-2.422-0.455-3.088
		c-0.247-0.533-0.702-0.801-1.366-0.801c-0.636,0-1.071,0.217-1.309,0.65s-0.355,1.221-0.355,2.361v2.996
		c0,0.596,0.035,1.006,0.106,1.227c0.071,0.223,0.306,0.65,0.704,1.287c0.104,0.182,0.156,0.389,0.156,0.621
		c0,0.596-0.389,1.033-1.166,1.316c-0.778,0.283-1.992,0.424-3.643,0.424c-2.638,0-3.956-0.58-3.956-1.74
		c0-0.242,0.04-0.426,0.121-0.553c0.08-0.127,0.272-0.305,0.576-0.537c0.247-0.191,0.403-0.412,0.47-0.658
		c0.066-0.248,0.128-0.855,0.185-1.824c0.066-1.15,0.1-2.357,0.1-3.619c0-0.695-0.05-1.152-0.149-1.369s-0.386-0.482-0.86-0.795
		c-0.408-0.271-0.612-0.605-0.612-0.998c0-0.404,0.166-0.734,0.498-0.992s1.016-0.582,2.049-0.977
		c0.911-0.342,1.788-0.633,2.633-0.869c0.844-0.238,1.423-0.357,1.735-0.357c0.285,0,0.524,0.111,0.719,0.334
		s0.292,0.484,0.292,0.787c0,0.029-0.005,0.156-0.015,0.379c-0.009,0.08-0.014,0.15-0.014,0.211c0,0.484,0.189,0.727,0.569,0.727
		c0.228,0,0.469-0.191,0.726-0.574c0.815-1.252,2.001-1.877,3.557-1.877c1.195,0,2.22,0.332,3.073,0.998
		c0.598,0.475,1.015,1.033,1.252,1.674S209.717,52.535,209.774,53.777z"/>
	<path style="fill:#035373;" d="M220.872,48.176c1.736,0,3.259,0.48,4.567,1.439c0.939,0.686,1.693,1.578,2.263,2.678
		c0.588,1.15,0.882,2.352,0.882,3.604c0,2.189-0.943,4.051-2.831,5.586c-1.803,1.463-3.865,2.193-6.189,2.193
		c-2.268,0-4.103-0.686-5.507-2.059c-1.365-1.332-2.049-3.066-2.049-5.207c0-2.381,0.835-4.328,2.505-5.842
		C216.257,48.975,218.377,48.176,220.872,48.176z M219.734,51.674c-0.418,0-0.752,0.164-1.003,0.492
		c-0.252,0.328-0.377,0.764-0.377,1.309c0,0.605,0.106,1.43,0.319,2.475c0.214,1.045,0.468,1.971,0.762,2.777
		c0.294,0.828,0.772,1.242,1.437,1.242c0.845,0,1.267-0.57,1.267-1.711c0-0.848-0.106-1.811-0.32-2.891
		c-0.213-1.08-0.472-1.959-0.775-2.635C220.73,52.047,220.293,51.693,219.734,51.674z"/>
</g>
<rect x="199.988" y="58.26" style="fill:#035373;" width="0" height="0"/>
<g>
</g>
<g>
</g>
<g>
</g>
<g>
</g>
<g>
</g>
<g>
</g>
<g>
</g>
<g>
</g>
<g>
</g>
<g>
</g>
<g>
</g>
<g>
</g>
<g>
</g>
<g>
</g>
<g>
</g>
<g>
</g>
<g>
</g>
</svg>
